<svg height="512" viewBox="0 0 64 64" width="512" xmlns="http://www.w3.org/2000/svg"><g id="time-clock-Restaurant-Coffee_break-coffee_time" data-name="time-clock-Restaurant-Coffee break-coffee time"><circle cx="23" cy="40" fill="#e8702e" r="20"/><circle cx="23" cy="40" fill="#5bcbfa" r="17"/><path d="m61 2v26h-17.5l-3.33 1.75-2.73 1.44-3.44 1.81v-5h-4v-26z" fill="#f7d880"/><path d="m53 20v2a1 1 0 0 1 -1 1h-14a1 1 0 0 1 -1-1v-2z" fill="#365e7d"/><path d="m52 10v4a5.47 5.47 0 0 1 -.09 1 5.99 5.99 0 0 1 -5.91 5h-2a6 6 0 0 1 -6-6v-7h14z" fill="#b4e6ee"/><path d="m61 1h-31a1 1 0 0 0 -1 1v17.89a21.016 21.016 0 1 0 12.54 10.27l2.21-1.16h17.25a1 1 0 0 0 1-1v-26a1 1 0 0 0 -1-1zm-31 28h3v4a1.015 1.015 0 0 0 .48.86 1.067 1.067 0 0 0 .52.14 1 1 0 0 0 .47-.12l2.58-1.35a15.866 15.866 0 0 1 1.84 6.47h-1.89v2h1.87a15.919 15.919 0 0 1 -14.87 14.87v-1.87h-2v1.87a15.919 15.919 0 0 1 -14.87-14.87h1.87v-2h-1.87a15.919 15.919 0 0 1 14.87-14.87v1.87h2v-1.87a15.51 15.51 0 0 1 5 1.15v2.72a1 1 0 0 0 1 1zm12 11a19 19 0 1 1 -19-19 18.822 18.822 0 0 1 6 .99v1.14a17.577 17.577 0 0 0 -6-1.05 17.93 17.93 0 1 0 15.82 9.51l.95-.5a18.894 18.894 0 0 1 2.23 8.91zm18-13h-16.5a1 1 0 0 0 -.47.12l-8.03 4.22v-3.34a1 1 0 0 0 -1-1h-3v-24h29z"/><path d="m38 24h14a2.006 2.006 0 0 0 2-2v-2a1 1 0 0 0 -1-1h-2.11a7.065 7.065 0 0 0 1.82-3h1.29a3.009 3.009 0 0 0 3-3v-1a3.009 3.009 0 0 0 -3-3h-1v-2a1 1 0 0 0 -1-1h-14a1 1 0 0 0 -1 1v7a6.97 6.97 0 0 0 2.11 5h-2.11a1 1 0 0 0 -1 1v2a2.006 2.006 0 0 0 2 2zm15-13h1a1 1 0 0 1 1 1v1a1 1 0 0 1 -1 1h-1zm-14 3v-6h12v6a5 5 0 0 1 -5 5h-2a5 5 0 0 1 -5-5zm-1 7h14v1h-14z"/><path d="m24 37.7v-8.7h-2v12a1 1 0 0 0 1.832.555l4-6-1.664-1.11z"/></g></svg>